<?xml version="1.0" encoding="UTF-8"?>
<svg width="22px" height="19px" viewBox="0 0 22 19" version="1.1" xmlns="http://www.w3.org/2000/svg" xmlns:xlink="http://www.w3.org/1999/xlink">
    <!-- Generator: Sketch 64 (93537) - https://sketch.com -->
    <title>Shape</title>
    <desc>Created with Sketch.</desc>
    <g id="Page-1" stroke="none" stroke-width="1" fill="none" fill-rule="evenodd">
        <path d="M13.9897499,15.2048738 L21.9998512,7.91318008 L21.9998512,7.91318008 L13.9926481,0.56557787 C13.5926938,0.198570139 12.9597229,0.213490385 12.578868,0.598903185 C12.4018121,0.778078008 12.3030569,1.01601425 12.3030569,1.26342946 L12.3030569,3.44644903 L12.3030569,3.44644903 C2.85558436,3.44644903 0.551727403,13.6665156 0.00276297643,17.8971063 C0.00276297643,17.8971063 0.00276297643,17.8971063 0.00276297643,17.8971063 C-0.0227110031,18.0934214 0.121787581,18.2724661 0.325509606,18.2970139 C0.476639591,18.3152246 0.624008245,18.2427571 0.697388379,18.1141452 C0.768676679,17.9891809 0.832714322,17.879531 0.88949318,17.785191 C3.80800977,12.935974 6.52429333,12.3104877 12.3030569,12.3104877 L12.3030569,14.5043735 C12.3030569,15.0365742 12.7507687,15.4680083 13.3030494,15.4680083 C13.5584189,15.4680083 13.8041127,15.3738617 13.9897499,15.2048738 Z M14.3179752,10.4302819 L12.3030569,10.4302819 C8.40186628,10.4302819 5.62113267,10.3767673 2.85812719,13.1141757 C4.80448071,8.3076384 8.12057476,5.32665489 12.3030569,5.32665489 L14.3179752,5.32665489 L14.3179752,3.50110103 L19.1202751,7.90780705 L14.3179752,12.2793999 L14.3179752,10.4302819 Z" id="Shape" fill="#FFFFFF" fill-rule="nonzero"></path>
    </g>
</svg>